<?xml version="1.0" encoding="utf-8"?>
<!-- Generator: Adobe Illustrator 19.2.1, SVG Export Plug-In . SVG Version: 6.00 Build 0)  -->
<svg version="1.1" id="Laag_1" xmlns="http://www.w3.org/2000/svg" xmlns:xlink="http://www.w3.org/1999/xlink" x="0px" y="0px"
	 viewBox="0 0 500 500" style="enable-background:new 0 0 500 500;" xml:space="preserve">
<style type="text/css">
	.st0{fill:#E6E6E6;stroke:#333333;stroke-width:13;stroke-miterlimit:10;}
	.st1{fill:#FFFFFF;stroke:#333333;stroke-width:13;stroke-miterlimit:10;}
	.st2{fill:#333333;stroke:#FFFFFF;stroke-width:6;stroke-miterlimit:10;}
	.st3{fill:#FFFFFF;stroke:#333333;stroke-width:6;stroke-miterlimit:10;}
	.st4{fill:none;stroke:#333333;stroke-width:6;stroke-miterlimit:10;}
</style>
<polygon class="st0" points="385.3,357.2 237.6,84.8 148.5,53.8 59.8,22.7 37.4,114 15.2,205.3 162.9,477.8 "/>
<polygon class="st1" points="468.2,249.3 249.1,30.1 154.9,25.8 60.9,21.2 65.5,115.2 70.2,209 289.3,428.1 "/>
<path class="st2" d="M467.4,215.2c-28.8,28.8-75.6,28.8-104.5,0c-28.8-28.8-28.8-75.6,0-104.5c28.8-28.8,75.6-28.8,104.5,0
	C496.3,139.6,496.3,186.4,467.4,215.2z"/>
<path class="st3" d="M459.5,207.3c-24.5,24.5-64.1,24.5-88.6,0s-24.5-64.1,0-88.6c24.5-24.5,64.1-24.5,88.6,0
	C483.9,143.2,483.9,182.8,459.5,207.3z"/>
<line class="st4" x1="449" y1="163" x2="381" y2="163"/>
<line class="st4" x1="415" y1="197" x2="415" y2="128"/>
</svg>
