<?xml version="1.0" encoding="utf-8"?>
<!-- Generator: Adobe Illustrator 16.0.0, SVG Export Plug-In . SVG Version: 6.00 Build 0)  -->
<!DOCTYPE svg PUBLIC "-//W3C//DTD SVG 1.1//EN" "http://www.w3.org/Graphics/SVG/1.1/DTD/svg11.dtd">
<svg version="1.1" xmlns="http://www.w3.org/2000/svg" xmlns:xlink="http://www.w3.org/1999/xlink" x="0px" y="0px" width="1280px"
	 height="800px" viewBox="0 0 1280 800" enable-background="new 0 0 1280 800" xml:space="preserve">
<g id="Laag_4">
	<rect fill="#FCFCFC" width="1280" height="800"/>
</g>
<g id="Laag_5">
</g>
<g id="Laag_2">
	<polygon opacity="0.7" fill="#F0AD05" stroke="#FFFFFF" stroke-width="4" stroke-miterlimit="10" points="1230.535,357.114 
		1280.066,328.522 1329.594,357.114 1329.594,414.313 1280.066,442.905 1230.535,414.313 	"/>
	<polygon opacity="0.7" fill="#F0AD05" stroke="#FFFFFF" stroke-width="4" stroke-miterlimit="10" points="1329.073,237.796 
		1279.542,266.393 1230.016,237.796 1230.016,180.603 1279.542,152.008 1329.073,180.603 	"/>
	<polygon opacity="0.7" fill="#F0AD05" stroke="#FFFFFF" stroke-width="4" stroke-miterlimit="10" points="1228.873,5.296 
		1278.4,-23.302 1327.932,5.296 1327.932,62.487 1278.4,91.084 1228.873,62.487 	"/>
	<polygon opacity="0.7" fill="#F0AD05" stroke="#FFFFFF" stroke-width="4" stroke-miterlimit="10" points="1278.99,325.748 
		1229.459,354.344 1179.931,325.748 1179.931,268.557 1229.459,239.964 1278.99,268.557 	"/>
	<polygon opacity="0.7" fill="#F0AD05" stroke="#FFFFFF" stroke-width="4" stroke-miterlimit="10" points="1179.634,93.303 
		1229.16,64.704 1278.692,93.303 1278.692,150.491 1229.16,179.086 1179.634,150.491 	"/>
	<polygon opacity="0.7" fill="#F0AD05" stroke="#FFFFFF" stroke-width="4" stroke-miterlimit="10" points="1078.247,268.672 
		1127.779,240.073 1177.307,268.672 1177.307,325.862 1127.779,354.459 1078.247,325.862 	"/>
	<polygon opacity="0.7" fill="#F0AD05" stroke="#FFFFFF" stroke-width="4" stroke-miterlimit="10" points="1227.293,63.091 
		1177.768,91.688 1128.24,63.091 1128.24,5.896 1177.768,-22.696 1227.293,5.896 	"/>
	<polygon opacity="0.7" fill="#F0AD05" stroke="#FFFFFF" stroke-width="4" stroke-miterlimit="10" points="1026.557,6.011 
		1076.084,-22.585 1125.611,6.011 1125.611,63.206 1076.084,91.805 1026.557,63.206 	"/>
	<polygon opacity="0.7" fill="#F0AD05" stroke="#FFFFFF" stroke-width="4" stroke-miterlimit="10" points="925.172,6.011 
		974.699,-22.585 1024.23,6.011 1024.23,63.206 974.699,91.805 925.172,63.206 	"/>
	<polygon opacity="0.7" fill="#F0AD05" stroke="#FFFFFF" stroke-width="4" stroke-miterlimit="10" points="52.975,446.021 
		3.443,474.616 -46.085,446.021 -46.085,388.823 3.443,360.226 52.975,388.823 	"/>
	<polygon opacity="0.7" fill="#F0AD05" stroke="#FFFFFF" stroke-width="4" stroke-miterlimit="10" points="52.639,620.749 
		3.112,649.343 -46.418,620.749 -46.418,563.55 3.112,534.96 52.639,563.55 	"/>
	<polygon opacity="0.7" fill="#F0AD05" stroke="#FFFFFF" stroke-width="4" stroke-miterlimit="10" points="4.465,476.177 
		53.996,447.579 103.523,476.177 103.523,533.37 53.996,561.964 4.465,533.37 	"/>
	<polygon opacity="0.7" fill="#F0AD05" stroke="#FFFFFF" stroke-width="4" stroke-miterlimit="10" points="53.972,796.366 
		4.445,824.954 -45.085,796.366 -45.085,739.171 4.445,710.571 53.972,739.171 	"/>
	<polygon opacity="0.7" fill="#F0AD05" stroke="#FFFFFF" stroke-width="4" stroke-miterlimit="10" points="104.665,708.677 
		55.138,737.274 5.606,708.677 5.606,651.485 55.138,622.888 104.665,651.485 	"/>
	<polygon opacity="0.7" fill="#F0AD05" stroke="#FFFFFF" stroke-width="4" stroke-miterlimit="10" points="56.155,738.833 
		105.688,710.235 155.214,738.833 155.214,796.026 105.688,824.62 56.155,796.026 	"/>
	<polygon opacity="0.7" fill="#F0AD05" stroke="#FFFFFF" stroke-width="4" stroke-miterlimit="10" points="106.245,650.882 
		155.771,622.284 205.298,650.882 205.298,708.077 155.771,736.669 106.245,708.077 	"/>
	<polygon opacity="0.7" fill="#F0AD05" stroke="#FFFFFF" stroke-width="4" stroke-miterlimit="10" points="157.234,738.452 
		206.761,709.858 256.288,738.452 256.288,795.644 206.761,824.235 157.234,795.644 	"/>
</g>
<g id="Laag_3">
</g>
<g id="Laag_1">
	<rect x="3.5" y="3.5" fill="none" stroke="#F0AD05" stroke-width="7" stroke-miterlimit="10" width="1274" height="794"/>
</g>
</svg>
