<?xml version="1.0" encoding="utf-8"?>
<!-- Generator: Adobe Illustrator 18.0.0, SVG Export Plug-In . SVG Version: 6.00 Build 0)  -->
<!DOCTYPE svg PUBLIC "-//W3C//DTD SVG 1.1//EN" "http://www.w3.org/Graphics/SVG/1.1/DTD/svg11.dtd">
<svg version="1.1" id="Layer_1" xmlns="http://www.w3.org/2000/svg" xmlns:xlink="http://www.w3.org/1999/xlink" x="0px" y="0px"
	 viewBox="0 0 96 72" enable-background="new 0 0 96 72" xml:space="preserve">
<g>
	<path fill="#666666" d="M72,55.1c14.2-1.6,20-5.7,20-16.1c0-10.4-5.8-14.6-20-16.1c0,0.4,0,0.7,0,1.1V55.1L72,55.1L72,55.1z
		 M24,22.9C9.8,24.4,4,28.6,4,39c0,10.4,5.8,14.6,20,16.1V24C24,23.6,24,23.2,24,22.9L24,22.9L24,22.9z M26,59.3
		C11.2,57.9,0,53.4,0,39c0-13.8,10.4-18.5,24.4-20.2C26.5,4.8,37.2,0,48,0c10.8,0,21.5,4.8,23.6,18.8C85.6,20.4,96,25.2,96,39
		c0,14.4-11.2,18.9-26,20.3L60,66H36L26,59.3L26,59.3L26,59.3z M28,55.9l9.3,6.1l21.4,0l9.3-6.1V24c0-13.6-7.7-20-20-20
		c-12.3,0-20,6.4-20,20V55.9L28,55.9z M22,36c0-1.1,0.9-2,2-2h48c1.1,0,2,0.9,2,2l0,0c0,1.1-0.9,2-2,2H24C22.9,38,22,37.1,22,36
		L22,36L22,36z M22,44c0-1.1,0.9-2,2-2h48c1.1,0,2,0.9,2,2l0,0c0,1.1-0.9,2-2,2H24C22.9,46,22,45.1,22,44L22,44L22,44z M56,65
		c0,3.9-3.6,7-8,7c-4.4,0-8-3.1-8-7h4c0,1.7,1.8,3,4,3c2.2,0,4-1.3,4-3H56L56,65L56,65z M22,52c0-1.1,0.9-2,2-2h48c1.1,0,2,0.9,2,2
		c0,1.1-0.9,2-2,2H24C22.9,54,22,53.1,22,52L22,52z M26,26h44v4H26V26L26,26z M26,26"/>
	<path fill-rule="evenodd" clip-rule="evenodd" fill="#666666" d="M42,22h-2c-3.3,0-6-2.7-6-6c0-3.3,2.7-6,6-6c3.3,0,6,2.7,6,6v2h4
		v-2c0-3.3,2.7-6,6-6c3.3,0,6,2.7,6,6c0,3.3-2.7,6-6,6h-2l0,0v7h-4v-7h-4v7h-4V22L42,22z M54,18v-2c0,0,0-2,2-2c2,0,2,2,2,2s0,2-2,2
		H54L54,18z M42,18v-2c0,0,0-2-2-2c-2,0-2,2-2,2s0,2,2,2H42L42,18z M42,18"/>
</g>
</svg>
