<?xml version="1.0" encoding="utf-8"?>
<!-- Generator: Adobe Illustrator 18.0.0, SVG Export Plug-In . SVG Version: 6.00 Build 0)  -->
<!DOCTYPE svg PUBLIC "-//W3C//DTD SVG 1.1//EN" "http://www.w3.org/Graphics/SVG/1.1/DTD/svg11.dtd">
<svg version="1.1" id="Layer_1" xmlns="http://www.w3.org/2000/svg" xmlns:xlink="http://www.w3.org/1999/xlink" x="0px" y="0px"
	 viewBox="0 0 608.2 702.2" enable-background="new 0 0 608.2 702.2" xml:space="preserve">
<g>
	<polygon fill="#FFCA28" points="22.4,188.5 22.4,513.8 304.1,676.4 585.8,513.8 585.8,188.5 304.1,25.8 	"/>
	<path fill="#FFCA28" d="M304.1,0L0,175.6v351.1l304.1,175.6l304.1-175.6V175.6L304.1,0z M588.8,515.5l-0.8,0.4L304.1,679.8
		l-0.8-0.4L19.4,515.5V186.8l0.8-0.4L304.1,22.4l284.7,164.4V515.5z"/>
</g>
<g>
	<text transform="matrix(1 0 0 1 128.7985 471.0351)" fill="#414042" font-family="'ProximaNova-Semibold'" font-size="56">OPENTHINGS</text>
</g>
<g>
	<path fill="#414042" d="M356,291.9c-0.7,0-1.5,0-2.2,0.1c0.1-0.4,0.2-0.9,0.2-1.3l0.1-0.9c0.1-0.4,0.1-0.8,0.2-1.2
		c0-0.3,0.1-0.7,0.1-1l0-0.6c0-0.2,0-0.4,0.1-0.7c0-0.8,0.1-1.6,0.1-2.4c0-2.5-0.2-5.1-0.6-7.5c-2.3-14.9-11.4-27.8-24.9-35.3
		c-6.3-3.5-13.3-5.7-20.5-6.3c7-16.4,14.1-23.5,20.5-26.1c0.2,1.8,0.7,3.6,1.4,5.3c1.9,4.4,5.4,7.7,9.9,9.4c2.1,0.8,4.2,1.2,6.4,1.2
		c7.3,0,14-4.6,16.6-11.4c1.7-4.4,1.6-9.3-0.3-13.6c-1.9-4.4-5.4-7.7-9.9-9.4c-2.1-0.8-4.2-1.2-6.4-1.2c-7.3,0-14,4.6-16.6,11.4
		c-0.2,0.6-0.4,1.2-0.6,1.8c-10,2.5-18.3,11.6-25.5,27.9c-7.3-16.3-15.5-25.4-25.5-27.9c-0.2-0.6-0.4-1.2-0.6-1.8
		c-2.6-6.8-9.3-11.4-16.6-11.4c-2.2,0-4.4,0.4-6.4,1.2c-9.2,3.5-13.7,13.9-10.2,23c2.6,6.8,9.3,11.4,16.6,11.4c0,0,0,0,0,0
		c2.2,0,4.4-0.4,6.4-1.2c6.4-2.5,10.6-8.3,11.3-14.7c6.4,2.6,13.5,9.7,20.5,26.1c-7.3,0.6-14.4,2.8-20.8,6.3
		c-13.5,7.5-22.6,20.4-24.9,35.3c-0.4,2.5-0.6,5-0.6,7.5c0,0.8,0,1.6,0.1,2.4c0,0.2,0,0.4,0.1,0.7l0,0.6c0,0.3,0.1,0.7,0.1,1
		c0,0.4,0.1,0.8,0.2,1.3l0.1,0.8c0.1,0.4,0.2,0.8,0.2,1.3c-0.6,0-1.1,0-1.6,0c-28.7,0-51.2,14.1-51.2,32.1c0,18,22.5,32.1,51.2,32.1
		c7.8,0,16.3-1.7,24.8-5.1v6c0,4.8,1.9,9.4,5.4,12.7l8.8,8.8c3.4,3.4,7.9,18.9,12.6,18.9c4.8,0,9.3-15.5,12.6-18.9l8.8-8.8
		c3.5-3.4,5.4-7.9,5.4-12.8v-6.3c8.7,3.5,17.4,5.3,25.4,5.3c28.7,0,51.2-14.1,51.2-32.1C407.2,306,384.7,291.9,356,291.9z
		 M335.7,202.5c1.7-4.5,6.1-7.5,10.9-7.5c1.4,0,2.9,0.3,4.2,0.8c2.9,1.1,5.2,3.3,6.5,6.2c1.3,2.9,1.3,6.1,0.2,9
		c-1.7,4.5-6.1,7.5-10.9,7.5c-1.4,0-2.9-0.3-4.2-0.8c-2.9-1.1-5.2-3.3-6.5-6.2C334.7,208.6,334.6,205.4,335.7,202.5z M265.4,217.7
		c-1.4,0.5-2.8,0.8-4.2,0.8c0,0,0,0,0,0c-4.8,0-9.2-3-10.9-7.5c-1.1-2.9-1.1-6.1,0.2-9c1.3-2.9,3.6-5.1,6.5-6.2
		c1.4-0.5,2.8-0.8,4.2-0.8c4.8,0,9.2,3,10.9,7.5C274.5,208.5,271.5,215.3,265.4,217.7z M252.2,349.9c-24.4,0-45.1-11.9-45.1-26
		c0-14.1,20.7-26,45.1-26c1.1,0,2.3,0.1,3.4,0.1c2.3,6.2,5.8,11.5,9.2,16.7c4.5,6.9,9.2,14.1,11.2,23.4l0.1,0.4
		c0.4,1.9,0.6,3.9,0.8,5.9C268.3,348,259.9,349.9,252.2,349.9z M303.9,389.7c-2.3,0-4.6-6.5-6.5-11.1h12.8
		C308.4,383.2,306.3,389.7,303.9,389.7z M321.2,365.7l-8.8,8.8l0,0v-0.7h-17.6v0.3l-8.4-8.4c-0.2-0.2-0.5-0.5-0.7-0.7h36.2
		C321.7,365.2,321.4,365.4,321.2,365.7z M324.9,357c0,1.1-0.1,2.1-0.4,3.1h-41.3c-0.3-1-0.4-2-0.4-3.1v-5.9h42.2V357z M325.9,337.4
		c-0.6,2.9-0.9,5.8-1,8.9h-42.2c-0.1-3-0.4-6-1-8.9l0,0L325.9,337.4L325.9,337.4z M327.2,332.5h-46.8c-2.5-8.1-6.7-14.6-10.8-20.8
		c-4.3-6.6-8.4-12.7-10-20.5c0,0,0-0.1,0-0.1c-0.1-0.5-0.2-0.9-0.3-1.4l-0.1-0.7c0-0.3-0.1-0.7-0.1-1c0-0.3-0.1-0.5-0.1-0.8
		l-0.1-0.6c0-0.2,0-0.3,0-0.5c0-0.7-0.1-1.3-0.1-2c0-2.2,0.2-4.5,0.5-6.6c2.1-13.2,10.1-24.5,22.1-31.2c6.8-3.8,14.6-5.8,22.4-5.8
		c7.9,0,15.6,2,22.4,5.8c12,6.7,20,18.1,22.1,31.2c0.3,2.2,0.5,4.4,0.5,6.6c0,0.7,0,1.4-0.1,2c0,0.2,0,0.3,0,0.5l-0.1,0.6
		c0,0.3,0,0.5-0.1,0.8c0,0.4-0.1,0.7-0.2,1.1l-0.1,0.7c-0.1,0.5-0.2,0.9-0.3,1.4c0,0-0.1,0.3-0.1,0.3c-1.6,7.6-5.7,13.8-10,20.4
		C333.9,317.9,329.7,324.4,327.2,332.5z M356,349.9c-7.8,0-16.5-2-25.2-5.7c0.1-1.9,0.4-3.8,0.8-5.7l0.1-0.3
		c0.1-0.3,0.2-0.6,0.2-0.9h0v-0.1c2.1-8.8,6.6-15.7,11-22.4c3.4-5.2,6.9-10.5,9.2-16.7c1.4-0.1,2.7-0.2,4-0.2
		c24.4,0,45.1,11.9,45.1,26C401.1,338,380.4,349.9,356,349.9z"/>
</g>
</svg>
