<?xml version="1.0" encoding="utf-8"?>
<!-- Generator: Adobe Illustrator 18.0.0, SVG Export Plug-In . SVG Version: 6.00 Build 0)  -->
<!DOCTYPE svg PUBLIC "-//W3C//DTD SVG 1.1//EN" "http://www.w3.org/Graphics/SVG/1.1/DTD/svg11.dtd">
<svg version="1.1" id="Layer_1" xmlns="http://www.w3.org/2000/svg" xmlns:xlink="http://www.w3.org/1999/xlink" x="0px" y="0px"
	 viewBox="0 0 196.5 106.5" enable-background="new 0 0 196.5 106.5" xml:space="preserve">
<g>
	<g>
		<path d="M196.3,62.3c1.1,5.4-2.5,10.7-7.9,11.7L22.5,106.4c-5.4,1.1-10.7-2.5-11.7-7.9L0.2,44.2c-1.1-5.4,2.5-10.7,7.9-11.7
			L174,0.2c5.4-1.1,10.7,2.5,11.7,7.9L196.3,62.3z"/>
	</g>
	<g>
		<path fill="#FFFFFF" d="M33.4,78.1L28,79.2l-4.6-23.5l5.4-1.1L33.4,78.1z M34.2,53.5l5.5-1.1L44.3,76l-5.5,1.1l-2-10.3l-4.5,0.9
			l-0.8-4l4.5-0.9L34.2,53.5z"/>
		<path fill="#FFFFFF" d="M54.3,49.6L64.9,72l-5.7,1.1l-2.1-4.7l-4.7,0.9l0-4.1l3.1-0.6l-3.7-9.2l-0.6,19.3l-5.4,1L47.4,51
			L54.3,49.6z"/>
		<path fill="#FFFFFF" d="M67.3,47.1l4.6,23.5l-5.4,1l-4.6-23.5L67.3,47.1z M72,56c0.9-0.2,1.4-0.5,1.8-1.1c0.3-0.5,0.4-1.2,0.2-2.1
			c-0.2-1-0.5-1.7-1-2.1c-0.5-0.4-1.2-0.5-2.1-0.3l-1.9,0.4l-0.8-4l1.7-0.3c5.5-1.1,8.6,0.5,9.4,4.6c0.5,2.5,0.2,4.5-0.9,5.9
			c-1.1,1.4-3,2.4-5.8,2.9l-1.9,0.4l-0.8-4L72,56z"/>
		<path fill="#FFFFFF" d="M85.6,43.5l4.6,23.5l-5.4,1l-4.6-23.5L85.6,43.5z M90.4,52.5c0.9-0.2,1.4-0.5,1.8-1.1
			c0.3-0.5,0.4-1.2,0.2-2.1c-0.2-1-0.5-1.7-1-2.1c-0.5-0.4-1.2-0.5-2.1-0.3l-1.9,0.4l-0.8-4l1.7-0.3c5.5-1.1,8.6,0.5,9.4,4.6
			c0.5,2.5,0.2,4.5-0.9,5.9c-1.1,1.4-3,2.4-5.8,2.9l-1.9,0.4l-0.8-4L90.4,52.5z"/>
		<path fill="#FFFFFF" d="M107.7,47.3l-1.3,6.3l-8.9-12.4l5.6-1.1L107.7,47.3z M116.2,37.6l-3.9,14.9l1.9,9.9l-5.4,1.1l-1.6-8.4
			l3.3-16.4L116.2,37.6z"/>
		<path fill="#FFFFFF" d="M123.3,36.2l4.6,23.5l-5.4,1.1l-4.6-23.5L123.3,36.2z M135.2,58.3l-6.3,1.2l-0.8-4l6.3-1.2L135.2,58.3z"/>
		<path fill="#FFFFFF" d="M144.3,32.1l10.6,22.4l-5.7,1.1l-2.1-4.7l-4.7,0.9l0-4.1l3.1-0.6l-3.7-9.2l-0.6,19.3l-5.4,1l1.4-24.7
			L144.3,32.1z"/>
		<path fill="#FFFFFF" d="M157.3,29.6l4.6,23.5l-5.4,1l-4.6-23.5L157.3,29.6z M162,38.5c0.9-0.2,1.4-0.5,1.8-1.1
			c0.3-0.5,0.4-1.2,0.2-2.1c-0.2-1-0.5-1.7-1-2.1c-0.5-0.4-1.2-0.5-2.1-0.3l-1.9,0.4l-0.8-4L160,29c5.5-1.1,8.6,0.5,9.4,4.6
			c0.6,3.1-0.1,5-2.2,5.8c1.2,0.1,2.2,0.5,3,1.3c0.8,0.8,1.4,2,1.7,3.6c0.8,4.3-1.5,7-7,8.1l-2.1,0.4l-0.8-4l2-0.4
			c1.9-0.4,2.6-1.5,2.2-3.5c-0.4-2.1-1.6-3-3.5-2.6l-1.9,0.4l-0.8-4L162,38.5z"/>
	</g>
	<path fill="#FFFFFF" d="M181.1,10.9c0.7,3.7-1.7,7.3-5.4,8c-3.7,0.7-7.3-1.7-8-5.4c-0.7-3.7,1.7-7.3,5.4-8
		C176.8,4.8,180.4,7.2,181.1,10.9z"/>
</g>
</svg>
