<?xml version="1.0" encoding="utf-8"?>
<!-- Generator: Adobe Illustrator 18.0.0, SVG Export Plug-In . SVG Version: 6.00 Build 0)  -->
<!DOCTYPE svg PUBLIC "-//W3C//DTD SVG 1.1//EN" "http://www.w3.org/Graphics/SVG/1.1/DTD/svg11.dtd">
<svg version="1.1" id="Layer_1" xmlns="http://www.w3.org/2000/svg" xmlns:xlink="http://www.w3.org/1999/xlink" x="0px" y="0px"
	 viewBox="0 0 866 1000" enable-background="new 0 0 866 1000" xml:space="preserve">
<g>
	<g>
		<polygon fill="#FBC02D" points="0,250 0,750 433,1000 866,750 866,250 433,0 		"/>
	</g>
	<g>
		<path fill="#414042" d="M603.6,327.7c-24.1-23.2-61.3-26.9-76.3-27.4c-6.8-37.9-34-72.6-94.3-72.6c-60.3,0-87.5,34.7-94.3,72.6
			c-15,0.5-52.2,4.2-76.3,27.4c-14.3,13.8-21.5,32-21.5,54.1c0,22.1,7.2,40.3,21.5,54.2c23.2,22.5,58.6,26.9,74.5,27.7v0.4
			l49.6,33.3h15.7c4.6,12.5,16.6,21.5,30.7,21.5s26.1-9,30.7-21.5h15.7l49.6-33.3v-0.4c15.9-0.8,51.3-5.2,74.5-27.7
			c14.3-13.8,21.5-32.1,21.5-54.2C625.1,359.7,617.9,341.5,603.6,327.7z M336.9,320.2v43.5c-4.4,0-8,3.6-8,8s3.6,8,8,8v16
			c-4.4,0-8,3.6-8,8c0,4.4,3.6,8,8,8v16c-4.4,0-8,3.6-8,8s3.6,8,8,8v3.8c-14.1-0.8-44.4-4.8-63.4-23.2
			c-11.1-10.7-16.7-25.1-16.7-42.7c0-17.6,5.6-31.9,16.6-42.5c18.9-18.3,49.4-22.1,63.5-22.9C337,317.7,336.9,318.9,336.9,320.2z
			 M433,502.8c-4.9,0-9.2-2.1-12.3-5.5H433h12.3C442.2,500.7,437.9,502.8,433,502.8z M513,455.5l-38.5,25.8H433h-41.6L353,455.5
			v-11.7H513V455.5z M513,427.8H353v-16H513V427.8z M513,395.8H353v-16H513V395.8z M513,363.7H353v-16H513V363.7z M408.6,301.6h-7.3
			c-4,0-7.3-3.3-7.3-7.3s3.3-7.3,7.3-7.3c4,0,7.3,3.3,7.3,7.3V301.6z M424.6,331.7v-14.1h2.7h14.2v14.1H424.6z M513,331.7h-55.6
			v-14.1h7.3c12.9,0,23.3-10.5,23.3-23.3S477.6,271,464.7,271s-23.3,10.5-23.3,23.3v7.3h-14.2h-2.7v-7.3c0-12.9-10.5-23.3-23.3-23.3
			c-12.9,0-23.3,10.5-23.3,23.3s10.5,23.3,23.3,23.3h7.3v14.1H353v-11.5c0-23,7.8-76.5,80-76.5s80,53.5,80,76.5V331.7z M457.4,301.6
			v-7.3c0-4,3.3-7.3,7.3-7.3c4,0,7.3,3.3,7.3,7.3s-3.3,7.3-7.3,7.3H457.4z M592.5,424.4c-18.9,18.3-49.3,22.4-63.4,23.2v-3.8
			c4.4,0,8-3.6,8-8s-3.6-8-8-8v-16c4.4,0,8-3.6,8-8c0-4.4-3.6-8-8-8v-16c4.4,0,8-3.6,8-8s-3.6-8-8-8v-43.5c0-1.3,0-2.6-0.1-3.9
			c14.1,0.7,44.5,4.5,63.5,22.8c11,10.6,16.6,25,16.6,42.6C609.1,399.3,603.5,413.7,592.5,424.4z"/>
	</g>
	<g>
		<g>
			<path d="M334.9,605.6c-0.2-4.5-0.5-9.9-0.5-14h-0.1c-1.1,3.8-2.4,7.8-4.1,12.3l-5.7,15.7h-3.2l-5.2-15.4
				c-1.5-4.6-2.8-8.7-3.7-12.6h-0.1c-0.1,4-0.3,9.5-0.6,14.3l-0.9,13.9h-4l2.3-32.4h5.3l5.5,15.7c1.3,4,2.4,7.5,3.3,10.9h0.1
				c0.8-3.3,2-6.8,3.4-10.9l5.8-15.7h5.3l2,32.4h-4.1L334.9,605.6z"/>
			<path d="M353.4,609.6l-3.4,10.2h-4.3l11-32.4h5l11,32.4h-4.5l-3.5-10.2H353.4z M364,606.4l-3.2-9.3c-0.7-2.1-1.2-4-1.7-5.9H359
				c-0.5,1.9-1,3.9-1.6,5.9l-3.2,9.4H364z"/>
			<path d="M379.9,587.9c2.5-0.4,5.6-0.7,8.9-0.7c6,0,10.3,1.4,13.1,4c2.9,2.6,4.6,6.4,4.6,11.6c0,5.3-1.6,9.6-4.7,12.6
				c-3,3-8,4.7-14.3,4.7c-3,0-5.5-0.1-7.6-0.4V587.9z M384.1,616.5c1.1,0.2,2.6,0.2,4.2,0.2c8.9,0,13.8-5,13.8-13.7
				c0-7.6-4.3-12.5-13.1-12.5c-2.2,0-3.8,0.2-4.9,0.4V616.5z"/>
			<path d="M431.1,604.6h-12.6v11.7h14v3.5h-18.2v-32.4h17.5v3.5h-13.3v10.2h12.6V604.6z"/>
			<path d="M456.5,619.8l-8.2-32.4h4.4l3.8,16.4c1,4,1.8,8.1,2.4,11.2h0.1c0.5-3.2,1.5-7.1,2.6-11.2l4.3-16.3h4.4l3.9,16.4
				c0.9,3.8,1.8,7.7,2.3,11.1h0.1c0.7-3.6,1.6-7.2,2.6-11.2l4.3-16.3h4.3l-9.2,32.4h-4.4l-4.1-16.9c-1-4.1-1.7-7.3-2.1-10.6H468
				c-0.6,3.2-1.3,6.4-2.5,10.6l-4.6,16.9H456.5z"/>
			<path d="M498.4,587.4v32.4h-4.2v-32.4H498.4z"/>
			<path d="M514.3,591h-9.8v-3.6h24v3.6h-9.9v28.8h-4.2V591z"/>
			<path d="M538.6,587.4V601h15.7v-13.5h4.2v32.4h-4.2v-15.2h-15.7v15.2h-4.2v-32.4H538.6z"/>
		</g>
		<g>
			<path d="M177.8,678.2c0-15.3,10.9-26.6,26.3-26.6c15.4,0,26.3,11.2,26.3,26.6s-10.9,26.6-26.3,26.6
				C188.7,704.8,177.8,693.5,177.8,678.2z M221.1,678.2c0-10.6-6.7-18.6-17-18.6c-10.4,0-17,7.9-17,18.6c0,10.6,6.6,18.6,17,18.6
				C214.4,696.8,221.1,688.8,221.1,678.2z"/>
			<path d="M242.9,703.8v-51.4h22.6c10.8,0,16.8,7.4,16.8,16.1c0,8.7-6.1,16.1-16.8,16.1h-13.6v19.2H242.9z M273,668.6
				c0-4.9-3.7-8.2-8.8-8.2h-12.3v16.3h12.3C269.3,676.7,273,673.5,273,668.6z"/>
			<path d="M293.5,703.8v-51.4h35.2v7.9h-26.2v13.3h25.6v7.9h-25.6v14.2h26.2v7.9H293.5z"/>
			<path d="M377.6,703.8l-26.8-36.7v36.7h-9v-51.4h9.2l26.3,35.7v-35.7h9v51.4H377.6z"/>
			<path d="M413.4,703.8v-43.4h-15.6v-7.9h40.1v7.9h-15.6v43.4H413.4z"/>
			<path d="M485.1,703.8v-22.4h-26.7v22.4h-9v-51.4h9v21h26.7v-21h9v51.4H485.1z"/>
			<path d="M508.9,703.8v-51.4h9v51.4H508.9z"/>
			<path d="M568.5,703.8l-26.8-36.7v36.7h-9v-51.4h9.2l26.3,35.7v-35.7h9v51.4H568.5z"/>
			<path d="M589.7,678.2c0-16.1,12.1-26.6,27-26.6c10,0,16.6,4.8,20.7,10.7l-7.4,4.2c-2.7-3.9-7.5-6.9-13.3-6.9
				c-10.2,0-17.7,7.8-17.7,18.6s7.5,18.6,17.7,18.6c5.2,0,9.9-2.5,12.2-4.6v-8h-15.3v-7.9h24.3v19.3c-5.1,5.6-12.2,9.3-21.2,9.3
				C601.8,704.8,589.7,694.3,589.7,678.2z"/>
			<path d="M647.8,696.6l5-6.9c3.5,3.8,9.1,7.1,16.2,7.1c7.4,0,10.3-3.6,10.3-7c0-10.8-30-4.1-30-23c0-8.5,7.5-15,18.7-15
				c8,0,14.5,2.5,19.3,7.2l-5.2,6.7c-4-4-9.5-5.9-14.9-5.9c-5.3,0-8.7,2.5-8.7,6.4c0,9.5,29.9,3.6,29.9,22.8c0,8.5-6,15.9-19.9,15.9
				C659.2,704.8,652.3,701.5,647.8,696.6z"/>
		</g>
	</g>
</g>
</svg>
