<?xml version="1.0" encoding="utf-8"?>
<!-- Generator: Adobe Illustrator 19.2.1, SVG Export Plug-In . SVG Version: 6.00 Build 0)  -->
<svg version="1.1" id="Laag_1" xmlns="http://www.w3.org/2000/svg" xmlns:xlink="http://www.w3.org/1999/xlink" x="0px" y="0px"
	 viewBox="0 0 500 500" style="enable-background:new 0 0 500 500;" xml:space="preserve">
<style type="text/css">
	.st0{fill:#333333;}
	.st1{fill:none;stroke:#333333;stroke-width:12;stroke-miterlimit:10;}
</style>
<g>
	<path class="st0" d="M368.9,131.2c-6.6-27.1-27.8-42.7-59.4-42.7c-31.9,0-52.8,15.7-59.4,42.7c-33.6,4.5-58.9,17.2-58.9,53.1
		c0,38.2,28.1,50.1,64.5,53.9l24,15.9h7.6c3.3,8.3,12.1,14.2,22.3,14.2c10.1,0,19-5.8,22.2-14.2h7.6l24-15.9
		c9.1-1,17.9-2.5,25.5-4.8c26.3-7.8,38.9-23.8,38.9-49C427.8,148.4,402.6,135.7,368.9,131.2z M361.6,192.6H257.4v-9.4h104.2
		L361.6,192.6L361.6,192.6z M257.4,202.2h104.2v9.4H257.4V202.2z M257.4,150.1c0-47,36.4-52.1,52.1-52.1c15.7,0,52.1,5.1,52.1,52.1
		v4.8h-37.9v-11.9h4.8c7.8,0,14.2-6.3,14.2-14.2c0-7.8-6.3-14.2-14.2-14.2c-7.8,0-14.2,6.3-14.2,14.2v4.8H305v-4.8
		c0-7.8-6.3-14.2-14.2-14.2c-7.8,0-14.2,6.3-14.2,14.2c0,7.8,6.3,14.2,14.2,14.2h4.8v11.9h-37.9v-4.8L257.4,150.1L257.4,150.1z
		 M295.4,133.5h-4.8c-4.8,0-4.8-4.8-4.8-4.8s0-4.8,4.8-4.8c4.8,0,4.8,4.8,4.8,4.8V133.5z M314.3,154.7H305v-11.6h9.4V154.7z
		 M323.7,133.5v-4.8c0,0,0-4.8,4.8-4.8c4.8,0,4.8,4.8,4.8,4.8s0,4.8-4.8,4.8H323.7z M361.6,164.3v9.4H257.4v-9.4H361.6z
		 M200.6,184.3c0-27.6,17.7-38.7,47.8-43.2c-0.3,2.8-0.5,5.8-0.5,8.9v77.4C218.2,223,200.6,211.8,200.6,184.3z M309.5,258.9
		c-4.6,0-8.6-1.8-11.4-4.8h22.5C318.1,257.1,314.1,258.9,309.5,258.9z M336.6,244.7h-54.1l-25-16.7v-6.8h104.2v6.8L336.6,244.7z
		 M371.2,227.5v-77.4c0-3-0.2-6.1-0.5-8.8c30.1,4.6,47.8,15.7,47.8,43.2C418.5,211.8,400.8,223,371.2,227.5z"/>
	<path class="st1" d="M482.9,179c0,95.2-77.2,172.5-172.5,172.5c-95.2,0-172.5-77.2-172.5-172.5c0-95.2,77.2-172.5,172.5-172.5
		C405.6,6.5,482.9,83.7,482.9,179z"/>
	<path class="st1" d="M137.9,184"/>
	<path class="st1" d="M176.7,153.6c0,0,4.2-85.7,91.8-111"/>
	
		<rect x="13.1" y="368.3" transform="matrix(0.6927 -0.7212 0.7212 0.6927 -256.1032 201.2547)" class="st1" width="190.1" height="65.7"/>
</g>
</svg>
