<?xml version="1.0" encoding="utf-8"?>
<!-- Generator: Adobe Illustrator 18.0.0, SVG Export Plug-In . SVG Version: 6.00 Build 0)  -->
<!DOCTYPE svg PUBLIC "-//W3C//DTD SVG 1.1//EN" "http://www.w3.org/Graphics/SVG/1.1/DTD/svg11.dtd">
<svg version="1.1" id="basis" xmlns="http://www.w3.org/2000/svg" xmlns:xlink="http://www.w3.org/1999/xlink" x="0px" y="0px"
	 viewBox="0 -0.1 200 61.5" enable-background="new 0 -0.1 200 61.5" xml:space="preserve">
<g>
	<path d="M200,34.7c-0.7,0-1,0-1.5,0c-0.4,0-1,0-1.6,0c-0.2,0.9-0.7,2.1-1.3,4c-0.6,1.6-0.9,2.9-1.1,4.1h-0.1
		c-0.3-1.6-0.5-2.3-1.2-4.1c-0.6-1.6-1.1-2.9-1.5-4c-0.7,0-0.9,0-1.6,0c-0.6,0-1.3,0-1.6,0c0.1,0.7,0.3,1.4,2.6,6.2
		c1.1,2.5,1.6,3.6,2,4.4c-0.4,0.6-0.6,1.1-1.1,2.2c-0.4,1-0.8,1.7-1.3,2.7c0.8,0,1.1,0,1.9,0c0.6,0,1.2,0,1.5,0
		c0.5-1.5,1-2.8,2.4-6.3C198.7,38.1,199.8,35.6,200,34.7 M187.6,37.5c0-0.5-0.1-0.8-0.1-1.3c0-0.5,0-0.9,0.1-1.5
		c-0.6,0.1-2.6,0-3.2,0.2l-0.1,0c0.2-0.9,0.1-1.7,0.2-2.6c-0.8,0.2-1.8,0.2-2.7,0.3c0,0.7,0,2,0.2,2.4l0,0c-0.5-0.2-1.8-0.1-2.5-0.2
		c0,0.4,0.1,0.9,0.1,1.4c0,0.6,0,0.8-0.1,1.4c0.6-0.1,1.7,0,2.4-0.3l0.1,0c-0.2,1.3-0.3,3.8-0.3,5c0,2.6,1,3.8,3.4,3.8
		c0.9,0,1.8-0.1,2.5-0.3c0-0.5-0.1-1-0.1-1.4c0-0.4,0-0.8,0-1.1c-0.4,0.1-0.8,0.1-1.2,0.1c-1.6,0-1.8-0.3-1.8-2
		c0-1.2-0.1-3.3-0.3-4.1l0.1-0.1C185.1,37.5,186.7,37.4,187.6,37.5 M175.6,39.5c-0.7-0.1-1.6-0.1-2.4-0.1c-0.9,0-1.8,0-2.6,0.2
		c0-1.8,0.9-2.7,2.7-2.7C174.9,36.9,175.6,37.6,175.6,39.5 M178.3,41.3v-0.9c0-4.3-1.8-6.2-5-6.2c-3.4,0-5.4,2.5-5.4,6
		c0,3.7,2.3,5.9,5.9,5.9c1.8,0,3.1-0.4,3.9-1c-0.2-0.7-0.2-1.9-0.2-2.3c-0.9,0.5-2.2,0.7-3.5,0.7c-1.9,0-3-0.8-3.2-2.4
		c0.4,0.1,1.3,0.1,2.1,0.1H178.3z M165.3,34.7c-0.5,0-1,0-1.6,0c-0.7,0-0.9,0-1.5,0c0,1.8,0.1,3.9,0.1,5.9c0,1.6,0,3.5,0,5.4
		c0.6,0,0.9,0,1.5,0c0.6,0,0.9,0,1.5,0c0-1.9-0.1-3.8-0.1-5.4C165.2,38.6,165.3,36.6,165.3,34.7 M165.6,32.5c0-0.6,0-0.8,0-1.4
		c0-0.5,0-0.8,0-1.3c-0.5,0-1.1,0-1.8,0c-0.7,0-1.2,0-1.8,0c0,0.4,0,0.8,0,1.3c0,0.5,0,0.8,0,1.4c0.6,0,1,0,1.8,0
		C164.6,32.4,165,32.4,165.6,32.5 M160.1,35.6c-0.7-0.9-1.8-1.2-3.3-1.2c-3.6,0-5.8,2.5-5.8,5.9c0,3.4,2.2,6,5.8,6
		c1.3,0,2.4-0.4,3.2-1.2c-0.2-0.8-0.2-1.9-0.2-2.5c-0.8,0.7-1.6,0.9-2.8,0.9c-2,0-3.2-1.3-3.2-3.2c0-1.9,1.1-3.1,3.2-3.1
		c1.3,0,2,0.2,2.8,1C159.8,37.1,159.9,36.1,160.1,35.6 M146.3,40.2c0,1.9-1,3.5-2.9,3.5c-1.9,0-2.9-1.5-2.9-3.5c0-2.1,1-3.3,2.9-3.3
		C145.4,36.9,146.3,38.1,146.3,40.2 M149.1,40.2c0-3.6-2.3-6-5.6-6c-3.3,0-5.6,2.3-5.6,5.9c0,3.7,2.2,6.2,5.6,6.2
		C146.8,46.3,149.1,43.8,149.1,40.2 M135.9,42.5c0-1.8-0.9-2.7-3-3c-2.1-0.4-2.2-0.5-2.2-1.3c0-0.8,0.6-1.2,2.2-1.2
		c1.1,0,2,0.1,2.7,0.5c0-0.9,0.1-1.9,0.3-2.4c-0.8-0.7-2-0.9-3.2-0.9c-3.1,0-4.8,1.5-4.8,3.7c0,1.7,0.8,2.7,3.1,3.1
		c2,0.3,2.2,0.5,2.2,1.2c0,0.8-0.4,1.2-1.9,1.2c-1,0-2-0.2-2.8-0.5c0,0.8-0.1,1.7-0.2,2.4c0.8,0.5,2,0.8,3.1,0.8
		C134.2,46.2,135.9,44.9,135.9,42.5 M118.2,37.9c-0.1,0.5-0.1,1.4-0.1,2.1c0,0.8,0,1.5,0.1,1.7c-0.4,0.6-1.1,1-2.3,1
		c-1.8,0-2.7-1-2.7-2.8c0-1.7,0.7-2.7,2.6-2.7C116.9,37.2,117.7,37.4,118.2,37.9 M121,34.7c-0.5,0-0.8,0-1.1,0c-0.3,0-0.7,0-1.1,0
		c-0.1,0.4-0.2,0.7-0.3,1.3l-0.1,0c-0.5-1.1-1.4-1.7-3-1.7c-3.1,0-5.1,2.1-5.1,5.5c0,3.2,2.1,5.4,5.1,5.4c1.4,0,2.3-0.9,2.7-1.8l0,0
		c0,0.2-0.1,0.5-0.1,0.9v0.5c0,2-0.9,2.8-2.9,2.8c-0.9,0-1.7-0.1-2.4-0.3c0,0.8-0.1,1.6-0.2,2.5c0.8,0.4,1.8,0.6,2.7,0.6
		c3.3,0,5.6-1.7,5.6-5.8v-4.6C120.9,38,120.9,36.4,121,34.7 M105.3,43c-0.4,0.6-1,0.9-2.1,0.9c-1.2,0-1.7-0.4-1.7-1.3
		c0-1,0.6-1.3,2-1.4c0.7,0,1.3,0,1.8-0.1V43z M108.3,45.9c-0.2-1-0.3-2-0.3-3v-4.1c0-3.2-1.5-4.6-4.8-4.6c-1.8,0-3.2,0.5-4,1.6
		c0.2,0.6,0.2,1.4,0.3,2.3l0,0c0.6-0.8,1.8-1.2,3.5-1.2c1.7,0,2.3,0.3,2.3,1.7v0.6h-0.5c-3.9,0-5.9,1-5.9,3.6c0,2.2,1.4,3.4,3.7,3.4
		c1.8,0,2.6-0.7,3-2.1h0.1c0,0.6,0.1,1.2,0.2,1.8c0.5,0,0.9,0,1.2,0C107.5,45.9,107.9,45.9,108.3,45.9 M93.8,43
		c-0.4,0.6-1,0.9-2.1,0.9c-1.2,0-1.7-0.4-1.7-1.3c0-1,0.6-1.3,2-1.4c0.7,0,1.3,0,1.8-0.1V43z M96.8,45.9c-0.2-1-0.3-2-0.3-3v-4.1
		c0-3.2-1.5-4.6-4.8-4.6c-1.8,0-3.2,0.5-4,1.6c0.2,0.6,0.2,1.4,0.3,2.3l0,0c0.6-0.8,1.8-1.2,3.5-1.2c1.7,0,2.3,0.3,2.3,1.7v0.6h-0.5
		c-3.9,0-5.9,1-5.9,3.6c0,2.2,1.4,3.4,3.7,3.4c1.8,0,2.6-0.7,3-2.1h0.1c0,0.6,0.1,1.2,0.2,1.8c0.5,0,0.9,0,1.2,0
		C96,45.9,96.4,45.9,96.8,45.9 M86.3,34.7c-0.6,0.1-0.9,0-1.4,0c-0.6,0-0.8,0-1.5,0c-0.2,1-0.7,2.5-1,3.8c-0.4,1.5-0.7,3.1-0.9,4.5
		h-0.1c-0.2-1.4-0.7-3-1.3-4.8c-0.6-1.7-0.9-2.8-1.2-3.4c-0.2,0-0.7,0-1.2,0c-0.4,0-0.9,0-1.2,0c-0.3,0.7-0.6,1.8-1.2,3.4
		c-0.5,1.8-1.1,3.5-1.3,4.8h0c-0.2-1.3-0.5-2.8-0.9-4.5c-0.3-1.4-0.8-2.7-1-3.8c-0.6,0-0.9,0-1.6,0c-0.6,0-0.7,0-1.4,0
		c0,0.5,0.5,2.1,1.8,6.4c0.7,2.1,1.2,3.7,1.5,4.9c0.4,0,0.9,0,1.3,0c0.4,0,1,0,1.2,0c0.2-0.4,1.1-2.5,1.7-4.4
		c0.4-1.3,0.8-2.6,0.9-3.9h0.1c0.1,1.3,0.5,2.5,0.9,3.8c0.6,1.9,1.5,4.1,1.7,4.5c0.2,0,0.9,0,1.3,0c0.4,0,1.2,0,1.2,0
		c0.3-1.2,0.7-2.6,1.5-4.9C85.8,36.8,86.3,35.1,86.3,34.7"/>
	<path d="M30.8-0.1C13.8-0.1,0,13.7,0,30.7c0,17,13.8,30.8,30.8,30.8c17,0,30.8-13.8,30.8-30.8C61.5,13.7,47.8-0.1,30.8-0.1z
		 M37.1,45.2l-0.1-9.7c-0.1-3.6-2.8-6.6-6.3-6.6s-6.3,3-6.3,6.6v9.7H12.9l2-19.3l5.6-11.8l2.4,9.7l7.8-13.2l7.9,13.2l2.3-9.7
		l5.7,11.8l2,19.3H37.1z"/>
</g>
</svg>
